<mxfile host="Electron" agent="Mozilla/5.0 (X11; Linux x86_64) AppleWebKit/537.36 (KHTML, like Gecko) draw.io/27.0.5 Chrome/134.0.6998.205 Electron/35.3.0 Safari/537.36" version="27.0.5">
  <diagram name="Page-1" id="QzgFa3uU4u2jLRmPQKbB">
    <mxGraphModel dx="1772" dy="441" grid="1" gridSize="10" guides="1" tooltips="1" connect="1" arrows="1" fold="1" page="1" pageScale="1" pageWidth="827" pageHeight="1169" math="0" shadow="0">
      <root>
        <mxCell id="0" />
        <mxCell id="1" parent="0" />
        <mxCell id="WE7rCPrfWoDa27ac-kRa-24" value="Crawler&lt;div&gt;1. pioche dans la queue EXPLORE une url&lt;/div&gt;&lt;div&gt;2. Télécharge robot.txt (le mes en cache) et le HTML&lt;/div&gt;&lt;div&gt;&lt;span style=&quot;background-color: transparent; color: light-dark(rgb(0, 0, 0), rgb(255, 255, 255));&quot;&gt;3. Met l&#39;URL dans&amp;nbsp;&lt;/span&gt;&lt;span style=&quot;background-color: transparent; color: light-dark(rgb(0, 0, 0), rgb(255, 255, 255));&quot;&gt;VISITED &lt;b&gt;SYNC&lt;/b&gt;&lt;/span&gt;&lt;/div&gt;&lt;div&gt;4. Mes le HTML dans la queue RAW&lt;br&gt;&lt;/div&gt;&lt;div&gt;&lt;br&gt;&lt;/div&gt;" style="rounded=1;whiteSpace=wrap;html=1;" parent="1" vertex="1">
          <mxGeometry x="480" y="150" width="260" height="140" as="geometry" />
        </mxCell>
        <mxCell id="WE7rCPrfWoDa27ac-kRa-25" value="Indexer&lt;div&gt;1. pioche dans la queue RAW&lt;/div&gt;&lt;div&gt;&lt;span style=&quot;background-color: transparent; color: light-dark(rgb(0, 0, 0), rgb(255, 255, 255));&quot;&gt;2. Algorithme d&#39;indexation (mots clefs X fréquence, inclure h1 etc...)&lt;/span&gt;&lt;/div&gt;&lt;div&gt;3. Ajoute les mots clefs, title, etc... dans DATA&lt;/div&gt;&lt;div&gt;4. Ajoute le HTML PROCESSED&lt;/div&gt;" style="rounded=1;whiteSpace=wrap;html=1;" parent="1" vertex="1">
          <mxGeometry x="480" y="460" width="260" height="140" as="geometry" />
        </mxCell>
        <mxCell id="WE7rCPrfWoDa27ac-kRa-26" value="In-memory&lt;div&gt;RAW&lt;/div&gt;&lt;div&gt;0&lt;/div&gt;" style="shape=cylinder3;whiteSpace=wrap;html=1;boundedLbl=1;backgroundOutline=1;size=15;" parent="1" vertex="1">
          <mxGeometry x="630" y="330" width="60" height="80" as="geometry" />
        </mxCell>
        <mxCell id="WE7rCPrfWoDa27ac-kRa-27" value="In-memory&lt;div&gt;EXPLORE&lt;/div&gt;&lt;div&gt;5&lt;/div&gt;" style="shape=cylinder3;whiteSpace=wrap;html=1;boundedLbl=1;backgroundOutline=1;size=15;" parent="1" vertex="1">
          <mxGeometry x="330" y="180" width="60" height="80" as="geometry" />
        </mxCell>
        <mxCell id="WE7rCPrfWoDa27ac-kRa-28" value="Redis&lt;div&gt;VISITED&lt;/div&gt;&lt;div&gt;3&lt;/div&gt;" style="shape=cylinder3;whiteSpace=wrap;html=1;boundedLbl=1;backgroundOutline=1;size=15;" parent="1" vertex="1">
          <mxGeometry x="384" y="330" width="60" height="80" as="geometry" />
        </mxCell>
        <mxCell id="WE7rCPrfWoDa27ac-kRa-29" style="edgeStyle=orthogonalEdgeStyle;rounded=0;orthogonalLoop=1;jettySize=auto;html=1;entryX=0.5;entryY=0;entryDx=0;entryDy=0;entryPerimeter=0;" parent="1" source="WE7rCPrfWoDa27ac-kRa-24" target="WE7rCPrfWoDa27ac-kRa-26" edge="1">
          <mxGeometry relative="1" as="geometry">
            <Array as="points">
              <mxPoint x="660" y="310" />
              <mxPoint x="660" y="310" />
            </Array>
          </mxGeometry>
        </mxCell>
        <mxCell id="WE7rCPrfWoDa27ac-kRa-30" style="edgeStyle=orthogonalEdgeStyle;rounded=0;orthogonalLoop=1;jettySize=auto;html=1;entryX=1;entryY=0.5;entryDx=0;entryDy=0;entryPerimeter=0;" parent="1" source="WE7rCPrfWoDa27ac-kRa-24" target="WE7rCPrfWoDa27ac-kRa-28" edge="1">
          <mxGeometry relative="1" as="geometry">
            <Array as="points">
              <mxPoint x="570" y="370" />
            </Array>
          </mxGeometry>
        </mxCell>
        <mxCell id="WE7rCPrfWoDa27ac-kRa-31" style="edgeStyle=orthogonalEdgeStyle;rounded=0;orthogonalLoop=1;jettySize=auto;html=1;entryX=0.5;entryY=1;entryDx=0;entryDy=0;entryPerimeter=0;" parent="1" source="WE7rCPrfWoDa27ac-kRa-25" target="WE7rCPrfWoDa27ac-kRa-26" edge="1">
          <mxGeometry relative="1" as="geometry">
            <Array as="points">
              <mxPoint x="660" y="450" />
              <mxPoint x="660" y="450" />
            </Array>
          </mxGeometry>
        </mxCell>
        <mxCell id="WE7rCPrfWoDa27ac-kRa-32" value="MongoDB&lt;div&gt;DATA&lt;/div&gt;&lt;div&gt;27017&lt;/div&gt;" style="shape=cylinder3;whiteSpace=wrap;html=1;boundedLbl=1;backgroundOutline=1;size=15;" parent="1" vertex="1">
          <mxGeometry x="220" y="520" width="60" height="80" as="geometry" />
        </mxCell>
        <mxCell id="WE7rCPrfWoDa27ac-kRa-33" style="edgeStyle=orthogonalEdgeStyle;rounded=0;orthogonalLoop=1;jettySize=auto;html=1;entryX=1;entryY=0.5;entryDx=0;entryDy=0;entryPerimeter=0;" parent="1" source="WE7rCPrfWoDa27ac-kRa-25" target="WE7rCPrfWoDa27ac-kRa-32" edge="1">
          <mxGeometry relative="1" as="geometry">
            <Array as="points">
              <mxPoint x="320" y="560" />
              <mxPoint x="320" y="560" />
            </Array>
          </mxGeometry>
        </mxCell>
        <mxCell id="WE7rCPrfWoDa27ac-kRa-37" style="edgeStyle=orthogonalEdgeStyle;rounded=0;orthogonalLoop=1;jettySize=auto;html=1;" parent="1" source="WE7rCPrfWoDa27ac-kRa-34" target="WE7rCPrfWoDa27ac-kRa-28" edge="1">
          <mxGeometry relative="1" as="geometry">
            <Array as="points">
              <mxPoint x="310" y="370" />
              <mxPoint x="310" y="370" />
            </Array>
          </mxGeometry>
        </mxCell>
        <mxCell id="WE7rCPrfWoDa27ac-kRa-38" style="edgeStyle=orthogonalEdgeStyle;rounded=0;orthogonalLoop=1;jettySize=auto;html=1;" parent="1" source="WE7rCPrfWoDa27ac-kRa-34" target="WE7rCPrfWoDa27ac-kRa-27" edge="1">
          <mxGeometry relative="1" as="geometry">
            <Array as="points">
              <mxPoint x="170" y="220" />
            </Array>
          </mxGeometry>
        </mxCell>
        <mxCell id="WE7rCPrfWoDa27ac-kRa-34" value="Outlinks&lt;div&gt;1. pioche dans la queue PROCESSED&lt;/div&gt;&lt;div&gt;&lt;span style=&quot;background-color: transparent; color: light-dark(rgb(0, 0, 0), rgb(255, 255, 255));&quot;&gt;2. Filtrer whitelist, blacklist&lt;/span&gt;&lt;/div&gt;&lt;div&gt;&lt;span style=&quot;background-color: transparent; color: light-dark(rgb(0, 0, 0), rgb(255, 255, 255));&quot;&gt;3. Vérifie que l&#39;url n&#39;est pas dans EXPLORE et dans VISITED&amp;nbsp;&lt;/span&gt;&lt;/div&gt;&lt;div&gt;4. Si oui&lt;span style=&quot;background-color: transparent; color: light-dark(rgb(0, 0, 0), rgb(255, 255, 255));&quot;&gt;&amp;nbsp;&lt;/span&gt;&lt;span style=&quot;background-color: transparent; color: light-dark(rgb(0, 0, 0), rgb(255, 255, 255));&quot;&gt;les mettre dans EXPLORE&lt;/span&gt;&lt;/div&gt;&lt;div&gt;&lt;span style=&quot;background-color: transparent; color: light-dark(rgb(0, 0, 0), rgb(255, 255, 255));&quot;&gt;5. Si non&amp;nbsp;&lt;/span&gt;&lt;span style=&quot;background-color: transparent; color: light-dark(rgb(0, 0, 0), rgb(255, 255, 255));&quot;&gt;ajuste l&#39;importance d&#39;une page dans DATA&lt;/span&gt;&lt;/div&gt;&lt;div&gt;&lt;br&gt;&lt;/div&gt;" style="rounded=1;whiteSpace=wrap;html=1;" parent="1" vertex="1">
          <mxGeometry x="50" y="270" width="240" height="140" as="geometry" />
        </mxCell>
        <mxCell id="WE7rCPrfWoDa27ac-kRa-35" style="edgeStyle=orthogonalEdgeStyle;rounded=0;orthogonalLoop=1;jettySize=auto;html=1;entryX=0;entryY=0.5;entryDx=0;entryDy=0;entryPerimeter=0;" parent="1" source="WE7rCPrfWoDa27ac-kRa-34" target="WE7rCPrfWoDa27ac-kRa-48" edge="1">
          <mxGeometry relative="1" as="geometry">
            <Array as="points">
              <mxPoint x="230" y="490" />
            </Array>
          </mxGeometry>
        </mxCell>
        <mxCell id="WE7rCPrfWoDa27ac-kRa-36" style="edgeStyle=orthogonalEdgeStyle;rounded=0;orthogonalLoop=1;jettySize=auto;html=1;entryX=0;entryY=0.5;entryDx=0;entryDy=0;entryPerimeter=0;" parent="1" source="WE7rCPrfWoDa27ac-kRa-34" target="WE7rCPrfWoDa27ac-kRa-32" edge="1">
          <mxGeometry relative="1" as="geometry">
            <Array as="points">
              <mxPoint x="120" y="560" />
            </Array>
          </mxGeometry>
        </mxCell>
        <mxCell id="WE7rCPrfWoDa27ac-kRa-39" style="edgeStyle=orthogonalEdgeStyle;rounded=0;orthogonalLoop=1;jettySize=auto;html=1;entryX=1;entryY=0.5;entryDx=0;entryDy=0;entryPerimeter=0;" parent="1" source="WE7rCPrfWoDa27ac-kRa-24" target="WE7rCPrfWoDa27ac-kRa-27" edge="1">
          <mxGeometry relative="1" as="geometry">
            <Array as="points">
              <mxPoint x="610" y="80" />
              <mxPoint x="440" y="80" />
              <mxPoint x="440" y="220" />
            </Array>
          </mxGeometry>
        </mxCell>
        <mxCell id="WE7rCPrfWoDa27ac-kRa-40" value="&lt;div&gt;&lt;div&gt;&lt;span style=&quot;background-color: transparent; color: light-dark(rgb(0, 0, 0), rgb(255, 255, 255));&quot;&gt;Admin&lt;/span&gt;&lt;/div&gt;&lt;div&gt;&lt;span style=&quot;background-color: transparent; color: light-dark(rgb(0, 0, 0), rgb(255, 255, 255));&quot;&gt;1. Récupère l&#39;URL soumise&lt;/span&gt;&lt;/div&gt;&lt;div&gt;&lt;span style=&quot;background-color: transparent; color: light-dark(rgb(0, 0, 0), rgb(255, 255, 255));&quot;&gt;2. L&#39;ajoute à EXPLORE&lt;/span&gt;&lt;/div&gt;&lt;/div&gt;&lt;div&gt;&lt;span style=&quot;background-color: transparent; color: light-dark(rgb(0, 0, 0), rgb(255, 255, 255));&quot;&gt;&lt;br&gt;&lt;/span&gt;&lt;/div&gt;Client&lt;div&gt;1. Récupère la demande du client&lt;/div&gt;&lt;div&gt;2. Regarde dans DATA les entrés qui possèdent tous les mots clefs&lt;/div&gt;&lt;div&gt;&lt;span style=&quot;background-color: transparent; color: light-dark(rgb(0, 0, 0), rgb(255, 255, 255));&quot;&gt;3. Trie par poids et retourne par page&lt;/span&gt;&lt;/div&gt;" style="rounded=1;whiteSpace=wrap;html=1;" parent="1" vertex="1">
          <mxGeometry x="-240" y="150" width="260" height="170" as="geometry" />
        </mxCell>
        <mxCell id="WE7rCPrfWoDa27ac-kRa-42" style="edgeStyle=orthogonalEdgeStyle;rounded=0;orthogonalLoop=1;jettySize=auto;html=1;entryX=0.5;entryY=1;entryDx=0;entryDy=0;entryPerimeter=0;" parent="1" source="WE7rCPrfWoDa27ac-kRa-40" target="WE7rCPrfWoDa27ac-kRa-32" edge="1">
          <mxGeometry relative="1" as="geometry">
            <Array as="points">
              <mxPoint x="-50" y="630" />
              <mxPoint x="250" y="630" />
            </Array>
          </mxGeometry>
        </mxCell>
        <mxCell id="WE7rCPrfWoDa27ac-kRa-44" value="" style="edgeStyle=orthogonalEdgeStyle;rounded=0;orthogonalLoop=1;jettySize=auto;html=1;" parent="1" source="WE7rCPrfWoDa27ac-kRa-43" target="WE7rCPrfWoDa27ac-kRa-40" edge="1">
          <mxGeometry relative="1" as="geometry">
            <Array as="points">
              <mxPoint x="-130" y="360" />
              <mxPoint x="-130" y="360" />
            </Array>
          </mxGeometry>
        </mxCell>
        <mxCell id="WE7rCPrfWoDa27ac-kRa-43" value="Client" style="text;html=1;align=center;verticalAlign=middle;whiteSpace=wrap;rounded=0;" parent="1" vertex="1">
          <mxGeometry x="-160" y="380" width="60" height="30" as="geometry" />
        </mxCell>
        <mxCell id="WE7rCPrfWoDa27ac-kRa-47" style="edgeStyle=orthogonalEdgeStyle;rounded=0;orthogonalLoop=1;jettySize=auto;html=1;entryX=0.5;entryY=0;entryDx=0;entryDy=0;entryPerimeter=0;" parent="1" source="WE7rCPrfWoDa27ac-kRa-40" target="WE7rCPrfWoDa27ac-kRa-27" edge="1">
          <mxGeometry relative="1" as="geometry">
            <Array as="points">
              <mxPoint x="-50" y="120" />
              <mxPoint x="360" y="120" />
            </Array>
          </mxGeometry>
        </mxCell>
        <mxCell id="WE7rCPrfWoDa27ac-kRa-48" value="In-memory&lt;div&gt;PROCESSED&lt;/div&gt;&lt;div&gt;1&lt;/div&gt;" style="shape=cylinder3;whiteSpace=wrap;html=1;boundedLbl=1;backgroundOutline=1;size=15;" parent="1" vertex="1">
          <mxGeometry x="340" y="450" width="60" height="80" as="geometry" />
        </mxCell>
        <mxCell id="WE7rCPrfWoDa27ac-kRa-49" style="edgeStyle=orthogonalEdgeStyle;rounded=0;orthogonalLoop=1;jettySize=auto;html=1;entryX=1;entryY=0.5;entryDx=0;entryDy=0;entryPerimeter=0;" parent="1" source="WE7rCPrfWoDa27ac-kRa-25" target="WE7rCPrfWoDa27ac-kRa-48" edge="1">
          <mxGeometry relative="1" as="geometry">
            <Array as="points">
              <mxPoint x="410" y="490" />
              <mxPoint x="410" y="490" />
            </Array>
          </mxGeometry>
        </mxCell>
        <mxCell id="WE7rCPrfWoDa27ac-kRa-51" value="" style="edgeStyle=orthogonalEdgeStyle;rounded=0;orthogonalLoop=1;jettySize=auto;html=1;" parent="1" source="WE7rCPrfWoDa27ac-kRa-50" target="WE7rCPrfWoDa27ac-kRa-40" edge="1">
          <mxGeometry relative="1" as="geometry">
            <Array as="points">
              <mxPoint x="-140" y="110" />
              <mxPoint x="-140" y="110" />
            </Array>
          </mxGeometry>
        </mxCell>
        <mxCell id="WE7rCPrfWoDa27ac-kRa-50" value="Admin" style="text;html=1;align=center;verticalAlign=middle;whiteSpace=wrap;rounded=0;" parent="1" vertex="1">
          <mxGeometry x="-170" y="70" width="60" height="30" as="geometry" />
        </mxCell>
      </root>
    </mxGraphModel>
  </diagram>
</mxfile>
